<svg xmlns="http://www.w3.org/2000/svg" viewBox="0 0 410 404">
  <defs>
    <linearGradient x1="33.8%" y1="17.8%" x2="83.3%" y2="88.3%" id="a">
      <stop stop-color="#41D1FF" offset="0%"/>
      <stop stop-color="#BD34FE" offset="100%"/>
    </linearGradient>
    <linearGradient x1="50%" y1="0%" x2="50%" y2="100%" id="b">
      <stop stop-color="#FFEA83" offset="0%"/>
      <stop stop-color="#FFDD35" offset="8.3%"/>
      <stop stop-color="#FFA800" offset="100%"/>
    </linearGradient>
  </defs>
  <path fill="url(#a)" d="M399.6 59.4L215.6 388.6c-7.6 13.7-27.3 15.1-37.1 2.5L9.4 176.5c-8.6-11.1-3.5-26.9 10.2-31.2l362-114.1c14.6-4.6 28.4 9.4 23 23.6z"/>
  <path fill="url(#b)" d="M292.3 1.4L156.3 42a25 25 0 0 0-17.1 18.2l-45.2 210.7c-2.9 13.4 12.4 23.4 23.7 15.5l65.1-45.7c11.7-8.2 28-5.7 36.5 5.8l73.5 98.3c8.4 11.3 26.4 7.5 29.3-6.3L324 20.5c2.8-14.2-9.9-26.4-23.8-22.8z"/>
</svg>

